<svg height="480pt" viewBox="-52 0 479 480" width="480pt" xmlns="http://www.w3.org/2000/svg" xmlns:xlink="http://www.w3.org/1999/xlink"><linearGradient id="a"><stop offset="0" stop-color="#fff200"/><stop offset="1" stop-color="#cd118c"/></linearGradient><linearGradient id="b" gradientUnits="userSpaceOnUse" x1="-2.372" x2="445.628" xlink:href="#a" y1="561.656" y2="25.656"/><linearGradient id="c" gradientUnits="userSpaceOnUse" x1="-222.084" x2="225.916" xlink:href="#a" y1="378.016" y2="-157.984"/><linearGradient id="d" gradientUnits="userSpaceOnUse" x1="-223.628" x2="224.372" xlink:href="#a" y1="376.728" y2="-159.272"/><linearGradient id="e" gradientUnits="userSpaceOnUse" x1="-204.788" x2="243.212" xlink:href="#a" y1="392.472" y2="-143.528"/><linearGradient id="f" gradientUnits="userSpaceOnUse" x1="-206.34" x2="241.66" xlink:href="#a" y1="391.184" y2="-144.816"/><linearGradient id="g" gradientUnits="userSpaceOnUse" x1="-227.5" x2="220.5" xlink:href="#a" y1="373.496" y2="-162.504"/><linearGradient id="h" gradientUnits="userSpaceOnUse" x1="-229.044" x2="218.956" xlink:href="#a" y1="372.2" y2="-163.8"/><linearGradient id="i" gradientUnits="userSpaceOnUse" x1="-210.204" x2="237.796" xlink:href="#a" y1="387.952" y2="-148.048"/><linearGradient id="j" gradientUnits="userSpaceOnUse" x1="-211.748" x2="236.252" xlink:href="#a" y1="386.656" y2="-149.344"/><linearGradient id="k" gradientUnits="userSpaceOnUse" x1="-174.004" x2="273.996" xlink:href="#a" y1="418.208" y2="-117.792"/><linearGradient id="l" gradientUnits="userSpaceOnUse" x1="14.812" x2="462.812" xlink:href="#a" y1="576.024" y2="40.024"/><linearGradient id="m" gradientUnits="userSpaceOnUse" x1="-1.708" x2="446.292" xlink:href="#a" y1="562.216" y2="26.216"/><linearGradient id="n" gradientUnits="userSpaceOnUse" x1="99.588" x2="547.588" xlink:href="#a" y1="646.88" y2="110.88"/><linearGradient id="o" gradientUnits="userSpaceOnUse" x1="127.076" x2="575.076" xlink:href="#a" y1="669.848" y2="133.848"/><path d="m335.125 400h-11.425781l-67.199219-114.175781v-61.824219h4c19.882812 0 36-16.117188 36-36s-16.117188-36-36-36h-28v-56h40c48.578125-.058594 87.941406-39.421875 88-88 0-4.417969-3.582031-8-8-8h-48c-45.46875.0585938-83.421875 34.722656-87.59375 80h-.40625v72h-16v-24c0-2.808594-1.472656-5.410156-3.878906-6.855469l-80-48-8.242188 13.710938 76.121094 45.671875v19.472656h-28c-19.882812 0-36 16.117188-36 36s16.117188 36 36 36h4v60.902344l-76.9375 115.097656h-1.6875c-20.921875-.21875-38.660156 15.328125-41.191406 36.097656-1.101563 11.234375 2.59375 22.410156 10.179687 30.773438 7.582031 8.363281 18.347657 13.132812 29.636719 13.128906h256c11.289062.003906 22.054688-4.765625 29.636719-13.128906 7.585937-8.363282 11.28125-19.539063 10.179687-30.773438-2.53125-20.769531-20.269531-36.316406-41.191406-36.097656zm-30.625-384h39.550781c-4.113281 36.417969-34.898437 63.957031-71.550781 64h-30.113281l65.6875-32.800781-7.148438-14.320313-64.648437 32.328125c9.820312-29.34375 37.277344-49.148437 68.222656-49.207031zm-44 152c11.046875 0 20 8.953125 20 20s-8.953125 20-20 20h-12c-4.417969 0-8 3.582031-8 8v72c0 1.425781.382812 2.828125 1.113281 4.054688l48.078125 81.65625c-11.832031-2.273438-23.863281-3.328126-35.910156-3.152344-7.105469-.023438-14.210938.3125-21.28125 1.007812v-203.566406zm-44 0v206.015625c-3.457031.710937-6.753906 1.457031-9.863281 2.207031-2.066407.488282-4.089844.960938-6.136719 1.425782v-209.648438zm-41.351562 123.777344c.878906-1.316406 1.347656-2.859375 1.351562-4.441406v-71.335938c0-4.417969-3.582031-8-8-8h-12c-11.046875 0-20-8.953125-20-20s8.953125-20 20-20h28v212.359375c-7.09375.757813-14.226562 1.117187-21.359375 1.082031-14.675781.269532-29.320313-1.480468-43.519531-5.203125l-.800782-.191406zm179.121093 164.359375c-4.554687 5.003906-11.003906 7.859375-17.769531 7.863281h-256c-6.785156.003906-13.253906-2.867188-17.804688-7.898438-4.550781-5.03125-6.761718-11.75-6.082031-18.5 1.699219-12.582031 12.570313-21.878906 25.261719-21.601562h5.960938c2.671874 0 5.164062-1.332031 6.648437-3.550781l14.816406-22.167969c2.246094.496094 4.4375 1.007812 6.605469 1.527344 15.410156 3.996094 31.289062 5.878906 47.203125 5.597656 7.140625.039062 14.28125-.289062 21.390625-.980469v43.574219h16v-46.015625c3.457031-.710937 6.753906-1.457031 9.863281-2.207031 2.066407-.488282 4.089844-.960938 6.136719-1.425782v57.648438h16v-60.367188c7.066406-.757812 14.171875-1.113281 21.28125-1.074218 14.605469-.273438 29.183594 1.476562 43.3125 5.203125l3.734375.863281 11.449219 19.429688c1.433594 2.441406 4.054687 3.941406 6.886718 3.945312h16c12.691407-.277344 23.566407 9.019531 25.265626 21.601562.683593 6.773438-1.554688 13.519532-6.160157 18.535157zm0 0" fill="url(#b)"/><path d="m72.5 8h16v16h-16zm0 0" fill="url(#c)"/><path d="m56.5 24h16v16h-16zm0 0" fill="url(#d)"/><path d="m88.5 24h16v16h-16zm0 0" fill="url(#e)"/><path d="m72.5 40h16v16h-16zm0 0" fill="url(#f)"/><path d="m16.5 64h16v16h-16zm0 0" fill="url(#g)"/><path d="m.5 80h16v16h-16zm0 0" fill="url(#h)"/><path d="m32.5 80h16v16h-16zm0 0" fill="url(#i)"/><path d="m16.5 96h16v16h-16zm0 0" fill="url(#j)"/><path d="m72.5 152c0-13.253906-10.746094-24-24-24s-24 10.746094-24 24 10.746094 24 24 24 24-10.746094 24-24zm-32 0c0-4.417969 3.582031-8 8-8s8 3.582031 8 8-3.582031 8-8 8-8-3.582031-8-8zm0 0" fill="url(#k)"/><path d="m120.5 432h16v16h-16zm0 0" fill="url(#l)"/><path d="m112.5 408h16v16h-16zm0 0" fill="url(#m)"/><path d="m264.5 432h16v16h-16zm0 0" fill="url(#n)"/><path d="m304.5 440h16v16h-16zm0 0" fill="url(#o)"/></svg>