<svg height="340pt" viewBox="1 -34 340.662 340" width="340pt" xmlns="http://www.w3.org/2000/svg" xmlns:xlink="http://www.w3.org/1999/xlink"><linearGradient id="a"><stop offset="0" stop-color="#034e89"/><stop offset="1" stop-color="#00b8c3"/></linearGradient><linearGradient id="b" gradientUnits="userSpaceOnUse" x1="-.801794592" x2="372.568221408" xlink:href="#a" y1="101.3506721856" y2="103.3526561856"/><linearGradient id="c" gradientUnits="userSpaceOnUse" x1="-.8720642304" x2="372.4979517696" xlink:href="#a" y1="114.4500538944" y2="116.4520378944"/><linearGradient id="d" gradientUnits="userSpaceOnUse" x1="-.7253188032" x2="372.644797296" xlink:href="#a" y1="87.0804301344" y2="89.0824141344"/><linearGradient id="e" gradientUnits="userSpaceOnUse" x1="-.5926873632" x2="372.7773286368" xlink:href="#a" y1="62.3605322976" y2="64.3625162976"/><linearGradient id="f" gradientUnits="userSpaceOnUse" x1="-.8669591712" x2="372.5030568288" xlink:href="#a" y1="113.5092215136" y2="115.5112055136"/><linearGradient id="g" gradientUnits="userSpaceOnUse" x1="-.9888799968" x2="372.3811360032" xlink:href="#a" y1="136.2411492384" y2="138.2431332384"/><linearGradient id="h" gradientUnits="userSpaceOnUse" x1="-1.1122022112" x2="372.2578137888" xlink:href="#a" y1="159.248249664" y2="161.250233664"/><linearGradient id="i" gradientUnits="userSpaceOnUse" x1="-1.111601616" x2="372.258414384" xlink:href="#a" y1="159.1263288384" y2="161.1283128384"/><linearGradient id="j" gradientUnits="userSpaceOnUse" x1="-1.1109009216" x2="372.2591150784" xlink:href="#a" y1="159.004508112" y2="161.006492112"/><linearGradient id="k" gradientUnits="userSpaceOnUse" x1="-.9846758304" x2="372.3854402688" xlink:href="#a" y1="135.4494646656" y2="137.4514486656"/><path d="m244.382812 57.199219c-25.109374 0-45.464843 20.355469-45.464843 45.464843 0 25.113282 20.355469 45.46875 45.464843 45.46875 25.109376 0 45.46875-20.355468 45.46875-45.46875-.03125-25.097656-20.371093-45.4375-45.46875-45.464843zm0 79.566406c-18.832031 0-34.097656-15.269531-34.097656-34.101563 0-18.832031 15.265625-34.097656 34.097656-34.097656 18.832032 0 34.101563 15.265625 34.101563 34.097656-.019531 18.824219-15.277344 34.082032-34.101563 34.101563zm0 0" fill="url(#b)"/><path d="m266.917969 109.109375c-2.710938-1.574219-6.183594-.648437-7.753907 2.0625-.003906.003906-.007812.011719-.011718.019531-.566406.980469-1.230469 1.902344-1.980469 2.75-2.078125 2.351563-1.851563 5.945313.5 8.023438 2.355469 2.074218 5.949219 1.851562 8.023437-.503906 1.25-1.414063 2.355469-2.953126 3.304688-4.585938 1.566406-2.71875.632812-6.195312-2.082031-7.765625zm0 0" fill="url(#c)"/><path d="m271.902344 95.566406c-3.230469-12.554687-14.554688-21.328125-27.519532-21.320312-3.140624 0-5.683593 2.546875-5.683593 5.6875 0 3.136718 2.542969 5.683594 5.683593 5.683594 7.777344-.011719 14.570313 5.25 16.515626 12.78125.785156 3.035156 3.882812 4.863281 6.921874 4.078124 3.035157-.78125 4.859376-3.875 4.082032-6.910156zm0 0" fill="url(#d)"/><path d="m153.449219 28.78125h-113.664063v68.199219h113.664063zm-11.367188 56.835938h-90.933593v-45.46875h90.933593zm0 0" fill="url(#e)"/><path d="m39.785156 108.347656h113.664063v11.367188h-113.664063zm0 0" fill="url(#f)"/><path d="m39.785156 131.082031h113.664063v11.367188h-113.664063zm0 0" fill="url(#g)"/><path d="m39.785156 153.816406h11.363282v11.363282h-11.363282zm0 0" fill="url(#h)"/><path d="m62.515625 153.816406h11.367187v11.363282h-11.367187zm0 0" fill="url(#i)"/><path d="m85.25 153.816406h11.367188v11.363282h-11.367188zm0 0" fill="url(#j)"/><path d="m323.949219 30.292969v-12.878907c0-2.535156-1.679688-4.765624-4.121094-5.464843-24.597656-6.847657-49.925781-10.734375-75.445313-11.585938-24.980468.792969-49.78125 4.535157-73.882812 11.15625-24.101562-6.621093-48.902344-10.363281-73.882812-11.15625-25.519532.851563-50.847657 4.742188-75.445313 11.585938-2.441406.699219-4.121094 2.929687-4.121094 5.464843v12.878907c-5.234375.824219-10.261719 2.636719-14.820312 5.339843-1.40625 1.074219-2.230469 2.746094-2.230469 4.515626v193.234374c0 3.136719 2.542969 5.679688 5.683594 5.679688.527344 0 1.050781-.070312 1.558594-.214844.777343-.222656 77.488281-21.820312 132.203124-11.554687 17.726563 15.695312 44.382813 15.695312 62.109376 0 8.511718-1.519531 17.132812-2.398438 25.777343-2.621094v31.445313c0 9.414062 7.636719 17.046874 17.050781 17.046874 9.417969 0 17.050782-7.632812 17.050782-17.046874v-30.320313c24.425781 2.355469 48.613281 6.71875 72.324218 13.046875 3.015626.863281 6.164063-.886719 7.023438-3.902344.144531-.507812.21875-1.03125.21875-1.5625v-193.230468c0-1.769532-.824219-3.441407-2.230469-4.515626-4.558593-2.703124-9.585937-4.515624-14.820312-5.339843zm-295.53125 4.59375v-13.109375c22.277343-5.921875 45.160156-9.289063 68.199219-10.046875 23.039062.761719 45.917968 4.128906 68.199218 10.046875v181.496094c-.222656-.058594-.488281-.121094-.722656-.179688-.386719-.097656-.777344-.191406-1.1875-.292969-.652344-.15625-1.335938-.320312-2.042969-.488281-.398437-.09375-.785156-.1875-1.203125-.285156-.90625-.210938-1.859375-.433594-2.84375-.65625-.265625-.058594-.503906-.113282-.773437-.175782-1.265625-.285156-2.59375-.574218-3.972657-.867187-.351562-.074219-.722656-.148437-1.078124-.226563-1.058594-.222656-2.128907-.441406-3.242188-.667968-.5-.097656-1.011719-.199219-1.519531-.296875-1.007813-.199219-2.03125-.394531-3.078125-.59375-.585938-.109375-1.167969-.21875-1.765625-.324219-1.03125-.191406-2.082031-.378906-3.144531-.5625-.605469-.105469-1.203126-.210938-1.820313-.3125-1.195313-.199219-2.410156-.394531-3.636719-.585938-.492187-.078124-.976562-.15625-1.472656-.234374-1.726562-.261719-3.476562-.511719-5.25-.753907-.289062-.039062-.582031-.070312-.871094-.109375-1.488281-.195312-2.984375-.378906-4.496094-.554687-.59375-.070313-1.191406-.128907-1.789062-.195313-1.214844-.128906-2.433594-.253906-3.65625-.371094-.691406-.066406-1.382812-.125-2.074219-.183593-1.164062-.097657-2.328125-.1875-3.496093-.269531-.695313-.046876-1.386719-.09375-2.078126-.136719-1.238281-.074219-2.476562-.132813-3.710937-.183594-.609375-.023437-1.214844-.054687-1.824219-.074219-1.824218-.058594-3.644531-.09375-5.449218-.09375-23.027344.648438-45.902344 3.894532-68.199219 9.671875zm198.914062 178.410156c-9.914062.238281-19.789062 1.289063-29.53125 3.144531-1.101562.222656-2.109375.761719-2.902343 1.554688-6.699219 6.066406-15.363282 9.511718-24.398438 9.703125-9.023438-.246094-17.667969-3.683594-24.398438-9.703125-.792968-.792969-1.800781-1.332032-2.902343-1.554688-48.089844-9.625-110.675781 4.207032-131.832031 9.550782v-182.25c1.863281-.679688 3.761718-1.261719 5.683593-1.75v168.65625c0 1.785156.839844 3.464843 2.261719 4.539062.632812.453125 1.355469.773438 2.121094.933594.199218.042968.402344.078125.605468.097656.230469.050781.460938.089844.695313.113281.527344 0 1.054687-.074219 1.5625-.21875 23.589844-6.511719 47.863281-10.253906 72.320313-11.148437 24.457031.902344 48.730468 4.640625 72.324218 11.148437.761719.199219 1.558594.238281 2.335938.109375.148437-.019531.285156-.027344.429687-.0625.117188-.023437.238281-.015625.355469-.046875 18.117188-4.921875 36.601562-8.363281 55.273438-10.296875v7.480469zm0-18.894531c-1.175781.105468-2.34375.21875-3.511719.335937-.480468.050781-.957031.097657-1.433593.148438-2.394531.253906-4.761719.539062-7.101563.851562-.410156.054688-.808594.113281-1.21875.167969-2.238281.308594-4.449218.632812-6.609375.976562-.203125.03125-.410156.0625-.609375.09375-2.289062.371094-4.507812.753907-6.671875 1.144532-.429687.078125-.847656.15625-1.273437.234375-2.101563.386719-4.148438.78125-6.101563 1.175781-.246093.050781-.472656.097656-.71875.148438-1.832031.371093-3.582031.742187-5.25 1.109374-.265625.058594-.535156.113282-.792969.171876-1.710937.378906-3.308593.742187-4.808593 1.09375l-1.046875.25c-1.367188.324218-2.664063.636718-3.808594.921874l-.191406.046876v-181.496094c22.28125-5.921875 45.160156-9.289063 68.199218-10.046875 23.039063.761719 45.921876 4.128906 68.199219 10.046875v181.496094c-16.804687-4.21875-33.902343-7.175782-51.148437-8.847657v-25.804687c36.46875-9.417969 58.402344-46.617188 48.984375-83.085938s-46.613281-58.402344-83.085938-48.984375c-36.46875 9.417969-58.398437 46.613281-48.984375 83.085938 6.203125 24.019531 24.960938 42.78125 48.984375 48.984375zm22.734375 61.714844c0 3.136718-2.542968 5.683593-5.683594 5.683593-3.140624 0-5.683593-2.546875-5.683593-5.683593v-17.050782h11.367187zm0-28.417969h-11.367187v-57.121094c1.878906.15625 3.765625.289063 5.683593.289063 1.917969 0 3.804688-.132813 5.683594-.289063zm-5.683594-68.199219c-31.386718 0-56.832031-25.445312-56.832031-56.835938 0-31.386718 25.445313-56.832031 56.832031-56.832031 31.386719 0 56.832032 25.445313 56.832032 56.832031-.035156 31.375-25.457032 56.800782-56.832032 56.835938zm85.25 66.5c-22.402343-5.605469-45.203124-9.492188-68.199218-11.621094v-8.558594c18.671875 1.9375 37.15625 5.382813 55.273437 10.292969 3.019531.859375 6.164063-.886719 7.027344-3.90625.144531-.507812.214844-1.03125.214844-1.558593v-168.65625c2.589843.671874 4.429687 1.273437 5.683593 1.734374zm0 0" fill="url(#k)"/></svg>